<?xml version="1.0" standalone="no"?>
<!DOCTYPE svg PUBLIC "-//W3C//DTD SVG 20010904//EN"
 "http://www.w3.org/TR/2001/REC-SVG-20010904/DTD/svg10.dtd">
<svg version="1.0" xmlns="http://www.w3.org/2000/svg"
 width="300.000000pt" height="188.000000pt" viewBox="0 0 300.000000 188.000000"
 preserveAspectRatio="xMidYMid meet">
<metadata>
Created by potrace 1.10, written by Peter Selinger 2001-2011
</metadata>
<g transform="translate(0.000000,188.000000) scale(0.100000,-0.100000)"
fill="#000000" stroke="none">
<path d="M1430 1778 c-115 -9 -157 -21 -261 -74 -75 -37 -107 -47 -194 -59
-110 -16 -150 -29 -159 -52 -9 -23 12 -51 44 -58 37 -8 39 -21 3 -28 -78 -17
-129 -86 -85 -115 l22 -14 -25 -30 c-29 -35 -33 -76 -7 -84 9 -3 23 -8 30 -10
10 -3 8 -11 -8 -31 -14 -17 -19 -35 -16 -49 4 -16 -4 -38 -25 -69 -18 -26 -33
-64 -36 -88 -3 -23 -12 -60 -21 -82 l-15 -40 -76 6 c-42 4 -109 17 -149 29
-78 24 -130 22 -153 -6 -11 -14 -9 -20 14 -40 15 -13 27 -25 27 -27 0 -3 -20
-7 -44 -9 -47 -6 -117 -37 -123 -55 -2 -6 3 -18 12 -27 18 -17 16 -19 -36 -30
-40 -9 -94 -50 -97 -74 -5 -30 14 -52 44 -52 32 0 30 -14 -5 -39 -42 -30 -66
-86 -52 -119 11 -23 15 -24 69 -19 31 3 65 8 74 12 15 6 16 2 11 -29 -8 -52 3
-84 39 -102 35 -18 91 -13 139 12 29 14 29 14 29 -14 0 -31 32 -71 58 -73 26
-2 25 -2 60 4 23 5 32 3 32 -7 0 -8 14 -26 31 -40 38 -32 89 -34 135 -5 l34
21 9 -25 c21 -54 86 -81 133 -56 17 9 25 6 49 -17 24 -23 37 -28 69 -26 81 6
116 4 155 -6 69 -19 168 -34 218 -33 221 2 427 19 470 38 32 14 45 14 88 5 54
-13 108 1 125 31 8 13 16 14 49 5 61 -16 104 9 128 76 1 4 18 -1 37 -13 63
-38 139 -21 161 36 5 13 13 22 18 19 5 -4 28 -7 50 -8 52 -2 81 23 81 69 0 38
-2 37 38 17 71 -35 137 -27 168 22 15 22 16 33 7 66 -10 38 -10 39 11 34 52
-16 116 -18 131 -6 29 24 18 67 -30 116 -25 24 -45 47 -45 49 0 3 11 5 23 5
13 0 32 9 42 20 15 16 16 25 7 44 -11 26 -85 66 -120 66 -25 0 -26 3 -10 29 9
15 9 23 -1 34 -14 18 -94 47 -128 47 -28 0 -30 11 -3 28 29 18 25 50 -7 63
-32 12 -82 6 -169 -21 -34 -10 -90 -20 -125 -21 -59 -3 -64 -1 -67 18 -2 12
-9 27 -17 33 -9 7 -12 22 -9 40 6 28 -13 81 -48 132 -10 14 -18 39 -18 55 0
16 -7 39 -16 51 -14 21 -14 23 11 32 14 5 28 17 31 25 7 16 -20 65 -43 78 -12
7 -11 12 6 24 44 30 15 85 -59 113 -50 19 -55 27 -23 35 37 9 53 23 53 46 0
31 -41 48 -155 63 -89 11 -120 20 -179 51 -144 76 -249 97 -416 83z m255 -72
c48 -9 94 -27 149 -59 85 -49 146 -67 231 -67 69 0 78 -15 18 -32 -25 -7 -48
-18 -50 -25 -2 -6 30 -27 71 -46 85 -41 101 -57 57 -57 -37 0 -61 -9 -61 -23
0 -6 17 -28 37 -49 25 -26 32 -38 21 -38 -33 0 -40 -26 -18 -63 16 -27 19 -40
11 -55 -8 -15 -3 -30 23 -73 52 -87 60 -119 38 -149 -34 -46 -80 -68 -200 -95
-64 -14 -144 -33 -177 -41 -157 -40 -521 -44 -655 -6 -41 11 -129 33 -195 47
-132 29 -192 60 -210 109 -8 24 -4 40 34 112 33 63 42 87 33 96 -8 8 -6 21 9
50 22 42 19 68 -6 68 -22 0 -19 10 16 46 39 41 34 64 -16 64 -19 0 -35 4 -35
9 0 4 34 25 76 45 45 21 74 41 72 49 -3 6 -23 18 -46 25 -59 19 -52 32 16 32
83 0 161 23 251 76 45 26 100 49 127 53 77 13 302 11 379 -3z m-845 -854 c50
-22 132 -41 325 -74 110 -19 163 -23 350 -22 175 1 231 5 275 18 30 9 93 21
140 25 155 16 267 56 314 112 l19 23 8 -21 c4 -12 9 -66 11 -121 4 -120 -2
-129 -107 -178 -80 -37 -157 -58 -265 -74 -41 -6 -115 -18 -165 -26 -66 -11
-140 -14 -275 -12 -327 7 -621 70 -720 155 l-43 37 7 110 c4 61 10 114 13 119
3 5 19 -5 37 -22 17 -16 51 -39 76 -49z m-351 14 c47 -14 109 -26 138 -26 l52
0 -4 -30 c-3 -16 -7 -43 -10 -59 -12 -79 34 -136 159 -196 151 -72 343 -105
668 -112 196 -5 250 -3 310 11 40 8 100 21 133 27 155 28 331 108 373 170 22
31 24 41 18 110 l-5 76 67 6 c37 2 104 17 150 32 89 28 128 29 74 1 -55 -29
-39 -48 55 -66 86 -17 107 -26 79 -35 -9 -3 -23 -7 -31 -10 -8 -2 -15 -13 -15
-24 0 -15 10 -23 43 -31 80 -21 137 -42 137 -50 0 -5 -21 -10 -47 -12 -70 -4
-69 -26 4 -101 32 -33 51 -58 43 -55 -53 18 -120 30 -134 25 -19 -7 -21 -49
-5 -96 9 -27 9 -36 -4 -48 -15 -15 -47 -12 -134 13 -27 7 -63 -26 -63 -60 0
-28 -24 -40 -50 -26 -10 6 -31 10 -47 10 -22 0 -32 -8 -48 -37 -25 -46 -43
-51 -98 -23 -57 29 -75 24 -110 -28 -22 -32 -33 -41 -46 -36 -9 4 -34 9 -55
12 -35 4 -43 1 -62 -24 -22 -27 -24 -28 -74 -16 -47 11 -56 10 -112 -14 -55
-23 -72 -25 -198 -25 -76 1 -145 4 -154 7 -9 3 -34 -1 -55 -9 -21 -9 -41 -14
-43 -12 -2 2 -49 8 -104 14 -67 6 -113 16 -140 30 -37 19 -46 20 -93 9 -50
-11 -52 -11 -80 16 -30 28 -66 32 -112 12 -19 -8 -30 2 -59 51 -23 39 -45 41
-102 12 -52 -26 -79 -19 -101 27 -17 34 -20 36 -55 31 -20 -4 -46 -8 -57 -9
-15 -2 -23 6 -33 38 -16 51 -34 57 -108 38 -91 -24 -108 -8 -82 78 10 33 9 41
-5 56 -16 15 -21 15 -80 0 -34 -9 -64 -14 -67 -11 -3 2 21 28 53 58 31 29 57
57 57 62 0 19 -26 33 -62 33 -60 0 -45 17 35 40 39 12 79 25 87 29 25 14 17
35 -20 52 l-34 17 59 12 c111 23 120 26 123 43 2 10 -10 25 -30 38 l-33 21 30
-5 c17 -3 68 -17 114 -31z"/>
<path d="M1715 1608 c-2 -7 -5 -22 -7 -32 -2 -10 -11 -24 -21 -30 -14 -9 -21
-7 -31 7 -14 18 -36 23 -36 8 0 -16 -31 -42 -42 -35 -5 3 -7 17 -4 29 7 27 -9
43 -18 19 -11 -27 -6 -61 9 -74 12 -10 20 -9 40 4 14 9 25 22 25 29 1 7 6 5
14 -5 33 -45 96 -6 96 59 0 32 -16 46 -25 21z"/>
<path d="M1293 1574 c-39 -19 -65 -57 -61 -87 2 -17 11 -23 35 -25 30 -3 31
-4 22 -32 -20 -55 22 -89 67 -55 27 20 29 19 29 -17 0 -24 6 -36 27 -47 25
-15 28 -14 52 8 24 22 24 22 31 2 13 -43 78 -31 105 19 14 26 18 89 5 89 -5 0
-16 -16 -23 -36 -14 -42 -41 -75 -53 -67 -5 3 -16 22 -25 42 -14 34 -17 35
-27 18 -7 -10 -20 -28 -29 -40 -15 -18 -19 -19 -28 -6 -5 8 -10 34 -10 58 0
49 -10 52 -52 16 -42 -35 -58 -18 -33 36 21 47 15 58 -21 41 -19 -8 -30 -9
-38 -1 -16 16 4 42 52 65 23 11 41 23 42 28 0 12 -33 8 -67 -9z"/>
<path d="M1055 1366 c-136 -43 -197 -126 -94 -126 l42 0 -20 -22 c-36 -40 -45
-65 -32 -89 8 -17 17 -20 40 -15 l29 6 -15 -30 c-20 -39 -19 -63 5 -85 17 -15
24 -16 45 -7 14 6 25 16 25 22 0 5 5 10 10 10 6 0 10 -9 10 -20 0 -11 7 -23
16 -27 20 -7 83 22 91 42 9 26 -4 28 -36 5 -39 -27 -55 -18 -48 26 8 49 -9 51
-48 7 -24 -28 -36 -35 -45 -27 -8 8 -5 25 14 67 27 61 21 79 -19 53 -29 -19
-55 -21 -55 -3 0 7 20 33 45 57 52 51 59 76 19 66 -73 -19 -84 -19 -84 -2 0
27 69 61 163 81 15 3 25 10 22 15 -8 13 -31 12 -80 -4z"/>
<path d="M1860 1372 c0 -11 24 -22 48 -22 30 0 144 -59 139 -72 -4 -14 -23
-15 -79 -4 -51 9 -49 -7 7 -56 65 -57 61 -100 -6 -61 -15 9 -31 14 -35 10 -4
-3 3 -29 15 -56 11 -27 21 -57 21 -65 0 -27 -26 -18 -54 19 -30 39 -51 37 -43
-4 3 -15 2 -33 -3 -41 -7 -12 -14 -11 -40 9 -45 33 -61 12 -19 -23 36 -31 70
-31 83 0 l10 22 28 -21 c39 -29 63 -14 62 39 0 22 -3 46 -7 54 -6 12 0 15 25
15 29 0 33 4 36 28 2 19 -5 40 -23 63 l-26 34 35 0 c40 0 50 11 42 45 -4 17
-24 32 -69 54 -66 31 -147 50 -147 33z"/>
<path d="M1145 1285 c-19 -20 -35 -44 -35 -53 0 -23 19 -42 43 -42 13 0 17 -5
13 -15 -9 -24 11 -65 33 -65 23 0 61 45 61 71 0 28 -13 23 -32 -11 -25 -44
-40 -38 -36 13 3 41 2 42 -24 39 -38 -5 -37 22 2 56 17 15 30 30 30 34 0 17
-21 6 -55 -27z"/>
<path d="M1800 1314 c0 -3 14 -22 30 -41 37 -42 38 -55 3 -51 -26 3 -28 1 -28
-36 0 -49 -15 -55 -38 -16 -19 31 -37 40 -37 18 0 -29 40 -78 64 -78 25 0 36
16 36 56 0 17 6 24 20 24 22 0 40 27 32 50 -9 29 -82 95 -82 74z"/>
<path d="M1365 1098 c-61 -73 -59 -114 5 -105 22 3 38 1 35 -4 -8 -13 13 -49
29 -49 7 0 25 9 40 21 20 16 26 17 26 6 0 -8 8 -25 19 -38 17 -21 22 -22 45
-11 29 13 56 65 56 107 0 31 -16 33 -25 3 -25 -90 -54 -104 -74 -38 -14 46
-24 50 -47 15 -24 -37 -44 -32 -44 10 0 41 -2 42 -46 14 -32 -20 -34 -20 -34
-2 0 10 13 34 30 53 16 19 29 38 30 43 1 16 -20 5 -45 -25z"/>
<path d="M379 708 c-20 -5 -49 -23 -65 -39 -25 -26 -26 -31 -13 -45 9 -8 41
-18 73 -21 l57 -6 -21 -22 c-13 -14 -20 -33 -18 -47 3 -20 8 -23 46 -22 l42 1
0 -37 c0 -50 21 -68 58 -49 15 7 30 15 35 17 4 2 7 -5 7 -16 0 -36 59 -69 75
-41 5 6 13 3 22 -10 8 -12 20 -21 28 -21 26 0 65 23 71 42 9 29 -2 33 -31 10
-29 -23 -51 -20 -58 9 -5 20 -32 26 -42 9 -15 -24 -35 -9 -35 25 0 39 -21 47
-56 20 -37 -28 -46 -20 -39 37 7 47 6 50 -11 44 -37 -15 -84 -19 -84 -8 0 6
16 24 35 39 55 44 47 53 -51 53 -95 0 -104 9 -43 45 26 15 52 20 109 20 41 0
77 5 80 10 7 14 -125 16 -171 3z"/>
<path d="M2455 711 c-9 -15 10 -21 67 -20 62 2 131 -15 148 -36 17 -20 4 -24
-89 -27 -41 -2 -76 -7 -77 -13 -2 -5 15 -22 36 -37 49 -34 52 -53 8 -44 -80
15 -78 17 -63 -51 7 -29 5 -33 -13 -33 -11 0 -25 7 -32 15 -16 19 -56 15 -52
-4 4 -20 -8 -51 -20 -51 -6 0 -19 7 -29 16 -16 14 -18 13 -31 -12 -17 -36 -32
-40 -58 -14 -15 15 -25 19 -32 12 -14 -14 34 -62 62 -62 11 0 29 9 39 19 14
14 22 16 30 8 18 -18 61 8 61 39 0 14 3 24 8 22 4 -2 20 -10 35 -18 42 -20 62
-4 61 49 -1 41 0 42 27 36 66 -15 90 24 44 70 l-24 25 32 0 c123 0 142 59 34
105 -40 16 -162 21 -172 6z"/>
<path d="M876 400 c-40 -44 -44 -61 -20 -84 18 -19 28 -20 55 -6 16 9 19 7 19
-8 0 -27 24 -44 56 -40 34 4 93 73 77 89 -8 8 -19 0 -38 -25 -15 -20 -36 -36
-48 -36 -17 0 -19 5 -14 40 6 46 -2 49 -44 19 -29 -21 -49 -19 -49 6 0 7 16
27 35 44 38 33 42 41 21 41 -7 0 -30 -18 -50 -40z"/>
<path d="M1975 354 c-16 -50 -26 -64 -44 -64 -10 0 -24 7 -31 15 -18 22 -28
19 -45 -15 -22 -43 -38 -38 -33 10 2 25 0 39 -7 37 -14 -5 -19 -76 -5 -92 14
-17 48 -8 60 16 10 17 12 17 39 1 29 -16 31 -16 55 7 28 27 43 78 27 94 -7 7
-12 5 -16 -9z"/>
<path d="M1186 331 c-25 -28 -27 -84 -3 -89 10 -2 27 4 38 14 18 16 19 16 19
-9 0 -43 49 -55 75 -20 9 12 13 10 22 -10 17 -36 50 -41 80 -11 22 22 25 23
47 9 25 -17 51 -12 60 11 5 13 9 13 28 0 12 -9 30 -16 39 -16 21 0 59 46 59
71 0 28 -13 23 -32 -11 -20 -35 -38 -38 -63 -10 -24 26 -34 25 -45 -5 -5 -14
-16 -25 -25 -25 -8 0 -21 11 -27 25 -15 34 -34 32 -47 -5 -14 -43 -46 -40 -61
5 -14 41 -24 44 -46 10 -25 -39 -44 -32 -44 17 l0 42 -30 -29 c-36 -34 -51
-26 -27 14 9 16 17 32 17 35 0 12 -17 5 -34 -13z"/>
</g>
</svg>
